<svg xmlns="http://www.w3.org/2000/svg" viewBox="0 0 137.145 137.145"><path d="M109.715 0H27.429C12.281 0 0 12.281 0 27.429v82.287c0 15.148 12.28 27.428 27.429 27.428h82.286c15.149 0 27.429-12.28 27.429-27.428V27.429C137.144 12.281 124.864 0 109.715 0zm13.715 102.859c0 11.361-9.21 20.572-20.572 20.572H34.287c-11.362 0-20.572-9.21-20.572-20.572V34.287c0-11.362 9.21-20.572 20.572-20.572h68.572c11.361 0 20.572 9.21 20.572 20.572v68.572zm-20.572-68.572H34.286v13.715h-6.857v6.857h6.857v34.286h-6.857v6.857h6.857v13.715h68.572V96.002h6.857V82.288h-6.857V75.43h6.857V61.716h-6.857v-6.857h6.857V41.145h-6.857v-6.858zM89.19 88.63c-.909 2.716-2.395 4.692-4.457 5.926-2.255 1.378-4.899 1.638-7.929.781-3.002-.848-6.017-2.658-9.045-5.431-3.029-2.772-5.661-6.208-7.899-10.31-1.655-3.077-2.917-6.226-3.785-9.445-.869-3.219-1.307-6.2-1.312-8.944-.006-2.743.422-5.2 1.286-7.368.863-2.167 2.145-3.771 3.846-4.81 1.811-1.107 4.224-1.383 7.238-.829.553.156.906.554 1.057 1.191l2.725 11.772c.067.35.07.648.007.894-.11.432-.386.782-.83 1.054l-5.257 3.172c-.645.446-.859 1.046-.645 1.8a31.819 31.819 0 002.88 7.107c1.279 2.344 2.734 4.424 4.365 6.239.539.582 1.141.67 1.808.263l5.162-2.803c.393-.318.823-.412 1.289-.28l.673.488 8.389 7.921c.446.459.59.995.434 1.612z"/></svg>